<svg width="0" height="0" class="hidden">
  <symbol fill="none" xmlns="http://www.w3.org/2000/svg" viewBox="0 0 23 27" id="SoftStar2327">
    <path d="M11.1931 0.320033C11.2363 -0.106678 11.7637 -0.106678 11.8069 0.320033L12.1687 3.89975C12.6359 8.52213 15.7404 12.1665 19.678 12.715L22.7273 13.1397C23.0909 13.1904 23.0909 13.8096 22.7273 13.8603L19.678 14.285C15.7404 14.8335 12.6359 18.4779 12.1687 23.1002L11.8069 26.6799C11.7637 27.1067 11.2363 27.1067 11.1931 26.6799L10.8313 23.1002C10.3641 18.4779 7.25959 14.8335 3.32201 14.285L0.272621 13.8603C-0.0908736 13.8096 -0.0908736 13.1904 0.272621 13.1397L3.32201 12.715C7.25959 12.1665 10.3641 8.52213 10.8313 3.89975L11.1931 0.320033Z" fill="white"></path>
  </symbol>
  <symbol fill="none" xmlns="http://www.w3.org/2000/svg" viewBox="0 0 24 28" id="SoftStar2428">
    <path d="M11.6798 0.331886C11.7248 -0.110629 12.2752 -0.110629 12.3202 0.331886L12.6978 4.04418C13.1853 8.83776 16.4248 12.6171 20.5335 13.1859L23.7155 13.6264C24.0948 13.6789 24.0948 14.3211 23.7155 14.3736L20.5335 14.8141C16.4248 15.3829 13.1853 19.1622 12.6978 23.9558L12.3202 27.6681C12.2752 28.1106 11.7248 28.1106 11.6798 27.6681L11.3022 23.9558C10.8147 19.1622 7.57523 15.3829 3.46644 14.8141L0.284474 14.3736C-0.0948246 14.3211 -0.0948246 13.6789 0.284474 13.6264L3.46644 13.1859C7.57523 12.6171 10.8147 8.83776 11.3022 4.04418L11.6798 0.331886Z" fill="white"></path>
  </symbol>
  <symbol fill="none" xmlns="http://www.w3.org/2000/svg" viewBox="0 0 35 41" id="SoftStar3541">
    <path d="M17.033 0.485976C17.0987 -0.161992 17.9013 -0.161992 17.967 0.485976L18.5176 5.92184C19.2286 12.941 23.9528 18.4751 29.9447 19.3079L34.5851 19.9529C35.1383 20.0299 35.1383 20.9701 34.5851 21.0471L29.9447 21.6921C23.9528 22.5249 19.2286 28.059 18.5176 35.0781L17.967 40.514C17.9013 41.162 17.0987 41.162 17.033 40.514L16.4824 35.0781C15.7714 28.059 11.0472 22.5249 5.05523 21.6921L0.414858 21.0471C-0.138286 20.9701 -0.138286 20.0299 0.414858 19.9529L5.05523 19.3079C11.0472 18.4751 15.7714 12.941 16.4824 5.92184L17.033 0.485976Z" fill="white"></path>
  </symbol>
  <symbol fill="none" xmlns="http://www.w3.org/2000/svg" viewBox="0 0 14 21" id="SoftStar1421">
    <path d="M6.81319 0.248915C6.83947 -0.0829715 7.16053 -0.0829715 7.18681 0.248915L7.40705 3.03314C7.69143 6.62832 9.58112 9.46285 11.9779 9.88943L13.834 10.2198C14.0553 10.2592 14.0553 10.7408 13.834 10.7802L11.9779 11.1106C9.58112 11.5372 7.69143 14.3717 7.40705 17.9668L7.18681 20.7511C7.16053 21.083 6.83947 21.083 6.81319 20.7511L6.59296 17.9668C6.30857 14.3717 4.41888 11.5372 2.02209 11.1106L0.165943 10.7802C-0.0553144 10.7408 -0.0553144 10.2592 0.165943 10.2198L2.02209 9.88943C4.41888 9.46285 6.30857 6.62832 6.59296 3.03314L6.81319 0.248915Z" fill="white"></path>
  </symbol>
</svg>